<svg xmlns="http://www.w3.org/2000/svg" width="182" height="84" viewBox="0 0 2000 1000" version="1.1">
	<path d="M 1073.463 70.464 C 1059.591 73.676, 1050.227 76.541, 1038.370 81.198 L 1028.239 85.178 1039.088 107.500 C 1062.899 156.496, 1072.542 184.221, 1079.079 222.480 C 1080.205 229.068, 1081.223 234.557, 1081.343 234.676 C 1081.462 234.796, 1085.504 233.310, 1090.325 231.374 C 1095.145 229.439, 1103.232 227.062, 1108.295 226.092 L 1117.500 224.330 1117.193 211.915 C 1116.840 197.629, 1114.623 173.589, 1112.451 160.500 C 1108.707 137.941, 1097.263 93.579, 1090.460 75.250 C 1087.327 66.811, 1088.190 67.054, 1073.463 70.464 M 1150.675 85.750 C 1135.483 133.142, 1127 180.041, 1127 216.645 L 1127 225 1129.810 225 C 1134.063 225, 1148.299 228.824, 1156.249 232.103 C 1160.136 233.706, 1163.388 234.901, 1163.475 234.759 C 1163.563 234.616, 1164.428 229.377, 1165.399 223.116 C 1170.983 187.082, 1181.478 156.800, 1205.608 107.095 C 1211.324 95.323, 1216 85.577, 1216 85.439 C 1216 84.758, 1200.196 78.778, 1190 75.600 C 1179.850 72.437, 1160.920 68, 1157.572 68 C 1156.888 68, 1153.899 75.693, 1150.675 85.750 M 640.164 157.253 C 632.280 203.589, 623.690 254.012, 621.077 269.305 L 616.326 297.109 619.413 298.379 C 621.111 299.078, 628.149 301.565, 635.053 303.906 L 647.605 308.162 655.553 302.704 C 686.149 281.691, 722.215 274.982, 755.299 284.150 C 783.978 292.097, 807.031 315.205, 817.397 346.396 C 823.325 364.232, 824.440 372.454, 824.459 398.500 C 824.474 417.672, 824.116 424.285, 822.683 431.374 C 815.234 468.218, 799.020 490.071, 774.369 496.492 C 755.796 501.330, 734.710 495.648, 721.024 482.118 C 704.448 465.731, 697.012 442.711, 697.004 407.750 L 697 391 648.500 391 L 600 391 600.017 396.250 C 600.137 432.531, 615.314 465.844, 642 488.401 C 672.255 513.975, 713.793 528, 759.283 528 C 823.779 528, 873.401 500.586, 897.754 451.500 C 905.055 436.782, 905.047 437.666, 897.997 425.803 C 879.125 394.049, 867.043 358.036, 863.003 321.500 C 861.806 310.671, 861.493 276.218, 862.542 270.629 C 863.175 267.256, 863.034 267.081, 855.344 261.656 C 834.139 246.696, 808.840 237.245, 779.695 233.396 C 770.458 232.176, 762.771 231.915, 748 232.321 C 717.449 233.160, 699.482 237.628, 672.213 251.166 C 664.354 255.067, 657.614 257.947, 657.233 257.567 C 656.557 256.890, 673.511 152.600, 674.578 150.874 C 674.881 150.384, 721.467 150, 780.559 150 L 886 150 886 111.500 L 886 73 770.250 73.003 L 654.500 73.006 640.164 157.253 M 972 121.331 C 958.490 133.147, 936.596 157.086, 938.109 158.388 C 938.324 158.573, 943.145 161.095, 948.822 163.992 C 954.499 166.889, 965.258 173.310, 972.731 178.261 C 1000.435 196.617, 1027.258 227.187, 1042.059 257.276 L 1046.868 267.052 1049.880 262.674 C 1053.484 257.437, 1061.822 248.709, 1067.895 243.819 L 1072.289 240.280 1068.054 228.890 C 1062.640 214.328, 1049.963 188.094, 1042.738 176.500 C 1034.703 163.606, 1026.101 153.342, 1010.857 138.462 C 999.693 127.566, 983.047 112.971, 981.829 113.011 C 981.648 113.017, 977.225 116.761, 972 121.331 M 1252.380 121.247 C 1231.287 138.707, 1215.088 156.159, 1203.417 174 C 1193.749 188.779, 1182.114 212.930, 1174.679 233.653 L 1172.113 240.806 1176.136 243.595 C 1180.732 246.779, 1193.187 259.815, 1195.701 264.072 L 1197.385 266.922 1203.567 255.101 C 1213.528 236.057, 1224.883 220.368, 1240.428 204.172 C 1254.605 189.402, 1274.570 174.884, 1296.177 163.632 L 1306.853 158.072 1302.177 152.227 C 1291.072 138.349, 1273.734 121.105, 1264.098 114.356 C 1262.469 113.215, 1261.136 113.999, 1252.380 121.247 M 911.474 203.227 C 904.802 219.413, 900.501 233.074, 897.534 247.500 C 896.629 251.900, 895.665 256.574, 895.391 257.886 C 894.932 260.086, 895.134 260.223, 897.994 259.651 C 899.699 259.310, 906.585 259.479, 913.297 260.027 C 953.574 263.313, 994.993 279.877, 1026.500 305.298 L 1033.500 310.946 1034.289 303.254 C 1034.723 299.024, 1036.412 291.581, 1038.042 286.716 L 1041.006 277.869 1037.879 273.325 C 1025.448 255.257, 1000.517 234.244, 976 221.172 C 959.714 212.488, 931.647 202.251, 916.868 199.604 C 913.335 198.971, 913.188 199.070, 911.474 203.227 M 1318 201.992 C 1288.537 209.964, 1261.598 222.961, 1239.500 239.865 C 1226.472 249.831, 1204 273.837, 1204 277.788 C 1204 278.421, 1205.117 282.359, 1206.482 286.541 C 1207.847 290.722, 1209.504 297.884, 1210.165 302.455 L 1211.367 310.767 1217.434 305.710 C 1247.784 280.406, 1290.212 263.407, 1331.391 260.050 C 1337.882 259.521, 1344.499 259.350, 1346.096 259.669 C 1349.751 260.400, 1349.756 260.158, 1346.427 245.120 C 1342.008 225.160, 1332.535 198.918, 1329.805 199.075 C 1329.087 199.117, 1323.775 200.429, 1318 201.992 M 908.500 297.100 C 905.200 297.571, 900.298 298.476, 897.606 299.112 L 892.712 300.268 893.332 310.393 C 894.303 326.266, 900.411 358.438, 903.001 361.318 C 903.405 361.768, 906.383 361.030, 909.618 359.679 C 919.322 355.624, 933.893 351.280, 946.046 348.819 C 956.116 346.780, 960.280 346.506, 980.500 346.549 C 1004.722 346.601, 1018.995 348.280, 1035.618 353.034 C 1039.399 354.115, 1042.786 355, 1043.143 355 C 1043.500 355, 1042.299 351.566, 1040.474 347.369 C 1038.650 343.172, 1036.357 335.779, 1035.378 330.939 L 1033.600 322.140 1021.050 316.155 C 998.500 305.400, 981.625 300.050, 962.022 297.440 C 950.502 295.906, 918.300 295.702, 908.500 297.100 M 1280.585 297.556 C 1263.545 299.876, 1241.427 307.166, 1221.593 317 L 1210.500 322.500 1209.820 327.340 C 1208.945 333.572, 1205.351 345.391, 1202.829 350.335 C 1201.746 352.457, 1201.059 354.393, 1201.302 354.636 C 1201.546 354.879, 1205.064 354.149, 1209.122 353.015 C 1229.724 347.254, 1264.707 344.474, 1285.766 346.923 C 1299.459 348.516, 1317.839 353.096, 1330.665 358.111 C 1336.421 360.361, 1341.319 362.014, 1341.550 361.784 C 1341.780 361.553, 1343.307 355.995, 1344.942 349.432 C 1347.952 337.353, 1350.390 321.826, 1351.475 307.828 L 1352.069 300.156 1346.458 298.991 C 1330.502 295.679, 1299.357 295, 1280.585 297.556 M 1002.500 366.047 C 984.987 367.245, 968.320 370.829, 948.922 377.568 C 937.190 381.644, 917.117 391.532, 916.311 393.632 C 915.729 395.148, 923.448 409.250, 931.292 421 C 936.126 428.242, 949.925 446, 950.718 446 C 950.932 446, 954.120 443.579, 957.803 440.620 C 972.643 428.697, 995.465 415.388, 1012.874 408.506 C 1032.227 400.855, 1058.009 396.001, 1079.301 395.999 L 1090.500 395.998 1084.275 393.054 C 1074.835 388.588, 1066.268 382.388, 1058.320 374.271 L 1051.140 366.938 1035.820 365.995 C 1018.994 364.959, 1018.377 364.960, 1002.500 366.047 M 1206.390 366.087 L 1193.281 366.881 1186.890 373.555 C 1179.506 381.266, 1170.646 387.862, 1161.474 392.478 L 1155.034 395.717 1170.767 396.281 C 1189.648 396.958, 1204.673 399.565, 1221.787 405.132 C 1242.490 411.868, 1269.231 426.537, 1287 440.906 L 1293.500 446.162 1297.363 441.831 C 1304.487 433.844, 1313.841 420.598, 1320.900 408.500 C 1324.750 401.900, 1328.162 395.801, 1328.482 394.946 C 1329.699 391.692, 1305.067 379.958, 1284.704 374.093 C 1268.017 369.286, 1255.727 367.026, 1240.694 365.999 C 1225.181 364.940, 1225.350 364.939, 1206.390 366.087 M 1103.768 401.112 C 1060.472 405.289, 1017.762 425.659, 984.666 457.920 L 973.831 468.481 977.666 471.798 C 987.370 480.191, 1024.675 503, 1028.699 503 C 1029.177 503, 1030.418 501.538, 1031.456 499.750 C 1040.921 483.455, 1058.951 467.036, 1077.712 457.629 C 1096.770 448.074, 1123.404 445.048, 1145.290 449.953 C 1170.047 455.501, 1193.669 471.951, 1209.630 494.761 C 1212.224 498.467, 1214.661 501.870, 1215.046 502.323 C 1215.964 503.402, 1234.214 494.238, 1245 487.281 C 1255.693 480.383, 1269.953 469.763, 1269.980 468.676 C 1270.015 467.244, 1258.840 456.050, 1249.734 448.397 C 1207.359 412.785, 1155.828 396.091, 1103.768 401.112 M 56 578.410 L 56 588 68 588 L 80 588 80 665.500 L 80 743 67.962 743 L 55.925 743 56.212 752.250 L 56.500 761.500 90.500 761.500 L 124.500 761.500 124.788 752.250 L 125.075 743 113.038 743 L 101 743 101 716.500 L 101 690 119.394 690 C 159.897 690, 179.379 684.769, 193.933 669.987 C 206.507 657.217, 211.610 636.819, 207.546 615.578 C 203.240 593.072, 187.392 578.054, 161.409 571.858 C 153.134 569.884, 149.064 569.701, 104.250 569.277 L 56 568.821 56 578.410 M 932 578 L 932 587 943 587 L 954 587 954 614.793 L 954 642.586 947.701 636.440 C 925.714 614.987, 885.049 615.987, 862.606 638.533 C 848.351 652.855, 840.982 674.280, 842.326 697.500 C 843.507 717.895, 850.216 734.218, 862.486 746.550 C 874.571 758.697, 888.432 764.293, 906.500 764.319 C 923.771 764.343, 937.263 759.363, 948.564 748.791 L 955 742.771 955 752.385 L 955 762 975.500 762 L 996 762 996 753.034 L 996 744.068 985.250 743.784 L 974.500 743.500 974.245 656.250 L 973.989 569 952.995 569 L 932 569 932 578 M 1089 578.443 L 1089 588 1100.500 588 L 1112 588 1112 665.500 L 1112 743 1100.500 743 L 1089 743 1089 752.514 L 1089 762.027 1121.750 761.764 L 1154.500 761.500 1154.788 752.250 L 1155.075 743 1144.565 743 L 1134.055 743 1133.778 711.479 L 1133.500 679.958 1152.406 680.229 L 1171.312 680.500 1190.940 721 L 1210.567 761.500 1230.533 761.500 L 1250.500 761.500 1250.788 752.250 L 1251.075 743 1238.288 742.997 L 1225.500 742.995 1210.250 711.606 C 1201.862 694.342, 1195 679.803, 1195 679.298 C 1195 678.792, 1197.362 677.795, 1200.250 677.082 C 1209.917 674.695, 1219.679 669.305, 1226.326 662.684 C 1236.992 652.060, 1241.329 640.862, 1241.308 624 C 1241.274 597.604, 1226.078 578.338, 1199.745 571.307 C 1194.392 569.878, 1186.040 569.586, 1141.250 569.263 L 1089 568.886 1089 578.443 M 1295 582 L 1295 595 1306.500 595 L 1318 595 1318 582 L 1318 569 1306.500 569 L 1295 569 1295 582 M 1898 578 L 1898 587 1909 587 L 1920 587 1920 615.081 L 1920 643.161 1915.025 637.717 C 1905.869 627.700, 1888.801 620.983, 1872.590 621.017 C 1844.685 621.077, 1822.574 636.565, 1813.046 662.727 C 1808.980 673.893, 1807.623 683.899, 1808.298 697.750 C 1808.970 711.539, 1810.653 718.404, 1816.207 730 C 1819.467 736.807, 1821.893 740.111, 1828.389 746.589 C 1841.101 759.266, 1853.739 764.346, 1872.500 764.319 C 1889.566 764.294, 1903.534 759.115, 1914.387 748.788 C 1917.732 745.604, 1920.589 743, 1920.735 743 C 1920.881 743, 1921 747.275, 1921 752.500 L 1921 762 1941.500 762 L 1962 762 1962 753 L 1962 744 1951 744 L 1940 744 1940 656.500 L 1940 569 1919 569 L 1898 569 1898 578 M 101.414 588.917 C 101.186 589.146, 101 607.483, 101 629.667 L 101 670 124.750 669.983 C 151.340 669.963, 158.482 668.986, 168.697 663.970 C 180.122 658.360, 186.608 647.907, 187.729 633.302 C 189.001 616.721, 182.991 603.182, 171.327 596.346 C 161.242 590.436, 156.711 589.671, 128.164 589.062 C 113.679 588.753, 101.642 588.688, 101.414 588.917 M 1133.664 588.666 C 1133.574 588.757, 1133.624 604.845, 1133.775 624.416 L 1134.050 660 1160.476 660 C 1176.068 660, 1189.074 659.543, 1192.201 658.885 C 1204.227 656.356, 1212.819 649.949, 1217.363 640.122 C 1219.162 636.232, 1219.495 633.679, 1219.470 624 C 1219.444 614.071, 1219.127 611.862, 1217.146 607.828 C 1213.200 599.789, 1206.364 594.103, 1196.528 590.679 C 1194.170 589.858, 1134.380 587.943, 1133.664 588.666 M 275.500 622.480 C 251.576 627.746, 234.973 643.782, 227.803 668.545 C 225.797 675.475, 225.502 678.691, 225.517 693.500 C 225.532 708.190, 225.845 711.581, 227.820 718.455 C 231.189 730.178, 236.459 739.481, 243.990 747 C 256.159 759.150, 269.932 764.200, 291 764.236 C 309.257 764.267, 321.969 760.424, 334.337 751.133 C 342.166 745.252, 350.405 733.204, 352.613 724.407 L 353.217 722 342.703 722 L 332.190 722 329.679 726.284 C 326.344 731.975, 318.043 739.626, 312.759 741.880 C 301.188 746.816, 284.885 747.287, 273.656 743.011 C 259.939 737.788, 248.876 723.582, 246.382 707.990 L 245.744 704 301.247 704 L 356.750 704 357.375 700.875 C 358.277 696.366, 358.109 686.531, 357.001 678.867 C 354.558 661.984, 346.627 646.112, 335.915 636.672 C 328.987 630.566, 316.533 624.424, 307.185 622.503 C 298.348 620.687, 283.691 620.677, 275.500 622.480 M 454.459 622.329 C 444.039 624.996, 434.820 631.125, 428.868 639.341 L 426 643.300 426 633.650 L 426 624 405.461 624 L 384.922 624 385.211 632.750 L 385.500 641.500 396.250 641.784 L 407 642.068 407 693.034 L 407 744 395.961 744 L 384.922 744 385.211 752.750 L 385.500 761.500 417.500 761.500 L 449.500 761.500 449.789 752.750 L 450.078 744 439.039 744 L 428 744 428 709.710 C 428 672.540, 428.513 667.922, 433.607 659.229 C 442.324 644.350, 456.912 639.259, 479.610 643.174 C 481.340 643.472, 481.524 642.679, 481.786 633.807 L 482.071 624.114 478.286 623.036 C 472.108 621.278, 459.972 620.918, 454.459 622.329 M 573 622.491 C 562.809 624.796, 553.215 630.045, 546.689 636.887 L 541 642.852 541 633.426 L 541 624 520.500 624 L 500 624 500 633 L 500 642 511 642 L 522 642 522 693 L 522 744 511 744 L 500 744 500 753 L 500 762 532 762 L 564 762 564 753 L 564 744 552.912 744 L 541.823 744 542.228 709.250 C 542.598 677.429, 542.807 673.976, 544.700 668.286 C 547.514 659.829, 550.982 654.193, 556.504 649.103 C 564.235 641.977, 568.615 640.500, 582.021 640.500 C 593.025 640.500, 593.842 640.648, 600.218 643.787 C 607.194 647.221, 613.662 653.484, 617.026 660.060 C 621.478 668.765, 622 673.992, 622 709.894 L 622 744 610.961 744 L 599.922 744 600.211 752.750 L 600.500 761.500 632.500 761.500 L 664.500 761.500 664.789 752.750 L 665.078 744 654.141 744 L 643.205 744 642.723 707.750 C 642.187 667.422, 641.648 663.107, 635.534 650.234 C 629.363 637.240, 618.166 627.766, 604 623.556 C 596.112 621.211, 580.960 620.691, 573 622.491 M 733.589 622.645 C 709.682 627.770, 692.532 644.956, 686.057 670.278 C 678.552 699.625, 686.276 731.318, 705.083 748.337 C 717.302 759.394, 731.201 764.342, 750 764.326 C 763.918 764.314, 772.344 762.396, 783.305 756.744 C 797.540 749.405, 807.012 737.738, 813.183 719.946 C 816.380 710.726, 816.459 710.093, 816.479 693.500 C 816.497 678.685, 816.204 675.478, 814.197 668.545 C 808.791 649.873, 797.539 635.749, 782 628.131 C 777.325 625.839, 770.350 623.305, 766.500 622.499 C 757.670 620.652, 742.574 620.718, 733.589 622.645 M 1412.069 622.088 C 1382.217 627.944, 1363.645 649.666, 1359.834 683.182 C 1357.027 707.865, 1364.326 731.396, 1379.476 746.505 C 1392.063 759.058, 1406.001 764.347, 1426.500 764.347 C 1447.354 764.347, 1461.048 759.070, 1474 746.043 C 1482.044 737.954, 1486.586 730.509, 1490.502 718.995 L 1492.881 712 1482.940 712 C 1477.473 712, 1472.716 711.976, 1472.369 711.947 C 1472.021 711.917, 1470.698 714.452, 1469.427 717.578 C 1464.832 728.884, 1454.632 738.878, 1443 743.472 C 1436.364 746.092, 1422.054 746.642, 1414 744.585 C 1397.486 740.368, 1385.764 727.823, 1381.521 709.825 C 1379.553 701.480, 1379.554 683.168, 1381.522 675.460 C 1386.627 655.461, 1400.130 642.753, 1419.304 639.901 C 1433.353 637.812, 1446.805 641.900, 1455.940 651.035 C 1460.940 656.035, 1465.786 663.702, 1468.085 670.250 L 1469.402 674 1480.701 674 L 1492 674 1492 649 L 1492 624 1482 624 L 1472 624 1472 633.426 L 1472 642.852 1466.461 637.044 C 1459.859 630.123, 1451.918 625.665, 1441.404 622.975 C 1433.221 620.883, 1420.220 620.489, 1412.069 622.088 M 1567.225 622.522 C 1549.979 626.267, 1534.203 638.778, 1526.272 655 C 1519.643 668.560, 1518.537 673.978, 1518.517 693 C 1518.502 707.547, 1518.777 710.384, 1520.844 716.965 C 1530.497 747.705, 1552.184 764.362, 1582.500 764.319 C 1599.678 764.294, 1613.844 758.848, 1624.395 748.213 L 1630 742.563 1630 752.282 L 1630 762 1650.500 762 L 1671 762 1671 753 L 1671 744 1660 744 L 1649 744 1649 693 L 1649 642 1660 642 L 1671 642 1671 633 L 1671 624 1650.500 624 L 1630 624 1630 633.420 L 1630 642.840 1624.191 637.031 C 1610.920 623.760, 1588.186 617.970, 1567.225 622.522 M 1771 622.035 C 1761.360 624.053, 1751.416 630.481, 1744.758 639 L 1742.022 642.500 1742.011 633.250 L 1742 624 1721.500 624 L 1701 624 1701 633 L 1701 642 1712 642 L 1723 642 1723 693 L 1723 744 1712 744 L 1701 744 1701 753 L 1701 762 1733 762 L 1765 762 1765 753 L 1765 744 1753.931 744 L 1742.863 744 1743.225 708.750 C 1743.567 675.534, 1743.715 673.125, 1745.799 667 C 1749.870 655.029, 1758.219 646.446, 1768.778 643.376 C 1774.800 641.625, 1786.260 641.364, 1792.750 642.828 L 1797 643.787 1797 633.941 L 1797 624.094 1793.250 623.035 C 1787.730 621.476, 1776.154 620.956, 1771 622.035 M 1276 633 L 1276 642 1287 642 L 1298 642 1298 693 L 1298 744 1287 744 L 1276 744 1276 753 L 1276 762 1308 762 L 1340 762 1340 753 L 1340 744 1329 744 L 1318 744 1318 684 L 1318 624 1297 624 L 1276 624 1276 633 M 281.263 640.514 C 262.852 644.514, 248.350 660.141, 246.159 678.340 L 245.358 685 291.179 685 L 337 685 336.976 681.750 C 336.903 672.106, 331.748 660.619, 324.013 652.866 C 317.402 646.240, 310.301 642.384, 301.131 640.440 C 293.086 638.735, 289.389 638.749, 281.263 640.514 M 741 640.126 C 727.743 642.276, 715.655 651.576, 709.618 664.269 C 705.179 673.604, 703.735 681.022, 703.833 694 C 703.958 710.655, 708.064 722.532, 717.125 732.446 C 726.023 742.182, 738.461 746.666, 754 745.741 C 780.762 744.148, 797.017 723.821, 796.975 692 C 796.939 664.770, 783.071 645.301, 760.270 640.469 C 752.750 638.876, 749.108 638.811, 741 640.126 M 898.251 640.516 C 881.686 644.115, 869.166 656.887, 864.336 675.113 C 862.058 683.711, 862.064 701.286, 864.348 710 C 870.651 734.048, 887.775 747.017, 911.582 745.771 C 919.149 745.376, 921.958 744.740, 927.400 742.194 C 943.980 734.435, 953.295 718.995, 954.677 696.980 C 956.526 667.521, 942.390 645.581, 918.270 640.469 C 910.081 638.734, 906.416 638.743, 898.251 640.516 M 1576 640.035 C 1552.269 644.250, 1538.035 664.108, 1538.035 693 C 1538.035 715.513, 1547.442 733.572, 1563.150 741.215 C 1582.186 750.477, 1605.952 745.983, 1618.281 730.791 C 1626.529 720.628, 1629.963 709.384, 1629.985 692.460 C 1630.010 673.964, 1625.480 661.578, 1615.054 651.633 C 1608.122 645.021, 1601.179 641.536, 1592 640.060 C 1584.715 638.889, 1582.470 638.885, 1576 640.035 M 1864.402 640.486 C 1852.329 643.112, 1843.405 649.239, 1836.808 659.428 C 1831.489 667.644, 1828.978 676.406, 1828.334 689 C 1827.058 713.936, 1836.649 733.048, 1854.817 741.772 C 1861.108 744.793, 1863.430 745.354, 1871.377 745.769 C 1895.232 747.017, 1912.412 734.013, 1918.633 710 C 1920.906 701.223, 1920.870 683.689, 1918.560 675 C 1913.638 656.486, 1901.324 644.083, 1884.280 640.471 C 1876.111 638.740, 1872.412 638.743, 1864.402 640.486" stroke="none" fill="#ffffff" fill-rule="evenodd"/>
</svg>
